<svg width="126" height="128" viewBox="0 0 126 128" fill="none" xmlns="http://www.w3.org/2000/svg">
<rect width="126" height="128" rx="5" fill="white"/>
<path d="M62.4771 101.44C58.1251 101.44 54.3491 100.768 51.1491 99.424C47.9491 98.08 45.3251 96.256 43.2771 93.952C41.2291 91.584 39.6931 88.8 38.6691 85.6C37.7091 82.4 37.2291 78.944 37.2291 75.232V33.472H46.5411V74.176C46.5411 80.832 48.0131 85.664 50.9571 88.672C53.9011 91.68 57.7411 93.184 62.4771 93.184C64.8451 93.184 66.9891 92.832 68.9091 92.128C70.8931 91.36 72.5891 90.208 73.9971 88.672C75.4051 87.136 76.4931 85.184 77.2611 82.816C78.0291 80.384 78.4131 77.504 78.4131 74.176V33.472H87.7251V75.232C87.7251 78.944 87.2131 82.4 86.1891 85.6C85.2291 88.8 83.6931 91.584 81.5811 93.952C79.5331 96.256 76.9091 98.08 73.7091 99.424C70.5731 100.768 66.8291 101.44 62.4771 101.44Z" fill="#5177FF"/>
</svg>
